<?xml version="1.0" encoding="utf-8"?>
<!-- Generator: Adobe Illustrator 16.0.0, SVG Export Plug-In . SVG Version: 6.00 Build 0)  -->
<!DOCTYPE svg PUBLIC "-//W3C//DTD SVG 1.1//EN" "http://www.w3.org/Graphics/SVG/1.1/DTD/svg11.dtd">
<svg version="1.1" id="Layer_1" xmlns="http://www.w3.org/2000/svg" xmlns:xlink="http://www.w3.org/1999/xlink" x="0px" y="0px"
	 width="200px" height="200px" viewBox="0 0 200 200" enable-background="new 0 0 200 200" xml:space="preserve">
<pattern  width="34.287" height="34.287" patternUnits="userSpaceOnUse" id="New_Pattern_Swatch_170" viewBox="0 -34.287 34.287 34.287" overflow="visible">
	<g>
		<polygon fill="none" points="0,0 34.287,0 34.287,-34.287 0,-34.287 		"/>
		<g>
			<polygon fill="#D8D7DA" points="34.287,0 0,0 0,-34.287 34.287,-34.287 			"/>
		</g>
	</g>
</pattern>
<pattern  width="34.287" height="34.287" patternUnits="userSpaceOnUse" id="New_Pattern_Swatch_171" viewBox="0 -34.287 34.287 34.287" overflow="visible">
	<g>
		<polygon fill="none" points="0,0 34.287,0 34.287,-34.287 0,-34.287 		"/>
		<g>
			<polygon fill="#C6C5CA" points="34.287,0 0,0 0,-34.287 34.287,-34.287 			"/>
		</g>
	</g>
</pattern>
<pattern  width="34.287" height="34.287" patternUnits="userSpaceOnUse" id="New_Pattern_Swatch_172" viewBox="0 -34.287 34.287 34.287" overflow="visible">
	<g>
		<polygon fill="none" points="0,0 34.287,0 34.287,-34.287 0,-34.287 		"/>
		<g>
			<polygon fill="#ADACB2" points="34.287,0 0,0 0,-34.287 34.287,-34.287 			"/>
		</g>
	</g>
</pattern>
<g id="XMLID_23_">
	<g id="XMLID_24_">
		<path id="XMLID_168_" fill="url(#New_Pattern_Swatch_170)" d="M105.034,168.36l1.137,6.453c4.9-0.864,8.785-4.099,10.689-8.315
			l2.241,6.157l0,0c4.676-1.702,7.94-5.562,9.084-10.045l3.275,5.674c4.31-2.487,6.854-6.855,7.201-11.469l4.212,5.02
			c3.812-3.198,5.56-7.941,5.101-12.545l5.019,4.211c3.199-3.812,4.095-8.786,2.846-13.24l5.673,3.275
			c2.488-4.31,2.508-9.363,0.502-13.533l6.157,2.241l0,0c1.702-4.676,0.843-9.657-1.855-13.415l6.452,1.138
			c0.864-4.899-0.847-9.657-4.156-12.888l6.552-0.001l0,0c-0.001-4.976-2.511-9.363-6.333-11.972l6.453-1.137
			c-0.864-4.9-4.099-8.785-8.314-10.69l6.157-2.241c-1.702-4.675-5.562-7.939-10.045-9.083l5.674-3.276
			c-2.488-4.31-6.855-6.853-11.469-7.202l5.019-4.211l0,0c-3.198-3.812-7.941-5.56-12.545-5.101l4.212-5.019
			c-3.812-3.199-8.787-4.096-13.241-2.845l3.276-5.674c-4.31-2.488-9.364-2.507-13.533-0.502l2.24-6.157l0,0
			c-4.675-1.701-9.657-0.843-13.414,1.856l1.137-6.452c-4.899-0.864-9.656,0.846-12.888,4.156v-6.552l0,0
			c-4.977,0-9.363,2.511-11.972,6.333l-1.138-6.453l0,0c-4.9,0.864-8.785,4.098-10.689,8.314l-2.241-6.157
			c-4.676,1.702-7.939,5.562-9.084,10.044l-3.276-5.674c-4.309,2.488-6.853,6.856-7.201,11.469l-4.211-5.02l-0.001,0
			c-3.811,3.198-5.558,7.941-5.1,12.545l-5.019-4.211l0,0c-3.198,3.812-4.095,8.786-2.845,13.241l-5.674-3.276l0,0
			c-2.488,4.309-2.507,9.364-0.502,13.533l-6.157-2.241c-1.702,4.676-0.843,9.657,1.855,13.415l-6.452-1.138l0,0
			c-0.864,4.9,0.846,9.658,4.157,12.889h-6.552c0,4.976,2.51,9.363,6.332,11.971l-6.452,1.139c0.863,4.9,4.098,8.785,8.314,10.689
			l-6.157,2.24c1.702,4.677,5.561,7.94,10.044,9.084l-5.674,3.275c2.488,4.31,6.855,6.854,11.469,7.202l-5.02,4.212
			c3.198,3.812,7.942,5.558,12.545,5.1l-4.211,5.02l0,0c3.812,3.198,8.787,4.096,13.241,2.844l-3.276,5.675l0,0
			c4.309,2.487,9.364,2.508,13.533,0.502l-2.241,6.157c4.676,1.701,9.657,0.843,13.415-1.855l-1.137,6.451l0,0
			c4.9,0.865,9.656-0.847,12.888-4.156v6.552C98.038,174.692,102.425,172.182,105.034,168.36z M90.871,101.135H68.658
			c-0.564,1.456-1.968,2.492-3.623,2.492c-2.15,0-3.893-1.743-3.893-3.893c-0.001-2.15,1.742-3.893,3.893-3.893
			c1.577,0,2.928,0.942,3.539,2.291h22.359c0.804-4.451,4.689-7.83,9.372-7.83c4.752,0,8.682,3.482,9.403,8.031h22
			c0.563-1.456,1.968-2.492,3.623-2.492c2.148,0,3.892,1.743,3.892,3.893c0.001,2.149-1.742,3.893-3.893,3.893
			c-1.577,0-2.928-0.941-3.539-2.29h-22.083c-0.721,4.549-4.65,8.03-9.403,8.03C95.482,109.367,91.507,105.782,90.871,101.135z"/>
		<g id="XMLID_25_">
			<path id="XMLID_164_" fill="url(#New_Pattern_Swatch_171)" d="M61.143,99.734c-0.001-2.15,1.742-3.893,3.893-3.893
				c1.577,0,2.928,0.942,3.539,2.291h22.359c0.804-4.451,4.689-7.83,9.372-7.83c4.752,0,8.682,3.482,9.403,8.031h22
				c0.563-1.456,1.968-2.492,3.623-2.492c2.148,0,3.892,1.743,3.892,3.893c0,0.034-0.009,0.066-0.01,0.1l26.394,0.001
				c0-36.065-29.236-65.301-65.301-65.301c-36.064,0-65.3,29.236-65.301,65.301h26.147C61.151,99.801,61.143,99.769,61.143,99.734z"
				/>
		</g>
		<path id="XMLID_162_" fill="url(#New_Pattern_Swatch_172)" d="M165.606,99.835l-26.394-0.001
			c-0.055,2.103-1.767,3.792-3.883,3.792c-1.577,0-2.928-0.941-3.539-2.29h-22.083c-0.721,4.549-4.65,8.03-9.403,8.03
			c-4.823,0-8.798-3.585-9.434-8.232H68.658c-0.564,1.456-1.968,2.492-3.623,2.492c-2.116,0-3.828-1.689-3.883-3.792H35.004
			c0,36.065,29.236,65.302,65.301,65.302C136.37,165.136,165.606,135.9,165.606,99.835z"/>
		<g id="XMLID_163_">
			<path id="XMLID_170_" fill="url(#New_Pattern_Swatch_172)" d="M62.118,137.54c-20.902-20.901-20.901-54.911,0-75.812
				c20.902-20.902,54.912-20.902,75.814,0c20.901,20.901,20.901,54.912-0.001,75.814C117.029,158.441,83.02,158.441,62.118,137.54z
				 M136.325,63.333c-20.016-20.016-52.585-20.016-72.601,0c-20.016,20.016-20.016,52.584,0,72.6
				c20.016,20.017,52.584,20.017,72.6,0.001C156.341,115.918,156.341,83.35,136.325,63.333z"/>
		</g>
		<path id="XMLID_197_" fill="url(#New_Pattern_Swatch_171)" d="M137.931,137.541c10.4-10.4,15.621-24.046,15.672-37.706l-2.271,0
			c-0.051,13.079-5.051,26.142-15.008,36.099c-20.016,20.016-52.584,20.016-72.6-0.001c-9.957-9.956-14.956-23.02-15.007-36.099
			h-2.271c0.052,13.66,5.272,27.306,15.672,37.705C83.02,158.441,117.029,158.441,137.931,137.541z"/>
	</g>
	<path id="XMLID_201_" fill="url(#New_Pattern_Swatch_172)" d="M100.824,72.42v-2.505h2.505c0.845,0,1.528-0.684,1.528-1.529
		s-0.684-1.529-1.528-1.529h-2.505v-2.505c0-0.844-0.684-1.529-1.529-1.529c-0.844,0-1.529,0.685-1.528,1.529l0,2.505h-2.505
		c-0.844,0-1.528,0.684-1.529,1.529c0,0.844,0.685,1.529,1.529,1.529h2.505v2.505c0,0.844,0.685,1.528,1.529,1.529
		C100.14,73.949,100.824,73.264,100.824,72.42z"/>
	<path id="XMLID_3_" fill="url(#New_Pattern_Swatch_171)" d="M97.767,134.832l5.562,0.001c0.845-0.001,1.528-0.685,1.528-1.529
		c0.001-0.844-0.684-1.529-1.528-1.528l-5.562-0.001"/>
	<path id="XMLID_2_" fill="url(#New_Pattern_Swatch_171)" d="M97.767,131.774l-2.504,0.001c-0.845-0.001-1.53,0.685-1.529,1.528
		c-0.001,0.845,0.684,1.528,1.529,1.529l2.504-0.001"/>
	<line fill="none" x1="97.767" y1="131.774" x2="100.824" y2="131.774"/>
	<line fill="none" x1="100.824" y1="134.832" x2="97.767" y2="134.832"/>
</g>
</svg>
